<svg width="16" height="16" viewBox="0 0 16 16" fill="none" xmlns="http://www.w3.org/2000/svg">
<path d="M10.2725 11.4534C10.2093 11.3773 10.1152 11.3333 10.0163 11.3333H5.98372C5.88475 11.3333 5.79069 11.3773 5.72753 11.4534C5.66406 11.5296 5.638 11.6299 5.65591 11.7272C6.13509 14.3229 7.05534 16 8 16C8.94466 16 9.86491 14.3229 10.3441 11.7272C10.362 11.6299 10.3359 11.5296 10.2725 11.4534Z" fill="#AAAAAA"/>
<path d="M15.6198 5.56509C15.5758 5.42706 15.4476 5.33331 15.3024 5.33331H11.5488C11.4548 5.33331 11.3649 5.37303 11.3018 5.443C11.2383 5.513 11.2077 5.60641 11.2172 5.70016C11.2943 6.46578 11.3334 7.23987 11.3334 7.99997C11.3334 8.76006 11.2943 9.53416 11.2172 10.2998C11.2077 10.3935 11.2383 10.487 11.3018 10.5569C11.3649 10.6269 11.4548 10.6666 11.5488 10.6666H15.3024C15.4476 10.6666 15.5759 10.5729 15.6198 10.4348C15.8721 9.64484 16 8.82584 16 8C16 7.17416 15.8721 6.35516 15.6198 5.56509Z" fill="#AAAAAA"/>
<path d="M11.0404 4.38869C11.0674 4.54916 11.2064 4.66669 11.3692 4.66669H14.7338C14.8513 4.66669 14.9603 4.6045 15.0205 4.50359C15.0804 4.40234 15.0827 4.27703 15.0264 4.17384C14.0257 2.34016 12.3067 0.943375 10.3092 0.341812C10.1807 0.302094 10.0391 0.346031 9.95347 0.451844C9.8685 0.557969 9.85612 0.704781 9.92222 0.82325C10.4079 1.69369 10.7946 2.92644 11.0404 4.38869Z" fill="#AAAAAA"/>
<path d="M10.21 5.33334H5.79003C5.61978 5.33334 5.47687 5.46159 5.45866 5.63088C5.37566 6.40041 5.33334 7.19759 5.33334 8.00003C5.33334 8.80247 5.37566 9.59966 5.45866 10.3692C5.47687 10.5385 5.61978 10.6667 5.79003 10.6667H10.21C10.3802 10.6667 10.5231 10.5385 10.5413 10.3692C10.6243 9.59966 10.6667 8.80247 10.6667 8.00003C10.6667 7.19759 10.6243 6.40041 10.5413 5.63088C10.5231 5.46159 10.3802 5.33334 10.21 5.33334Z" fill="#AAAAAA"/>
<path d="M1.26628 4.66666H4.63088C4.79362 4.66666 4.93262 4.54916 4.95966 4.38866C5.20544 2.92641 5.59216 1.69366 6.07781 0.823219C6.14391 0.704719 6.13153 0.557906 6.04656 0.451813C5.96128 0.346344 5.82031 0.30175 5.69078 0.341781C3.69337 0.943375 1.97428 2.34016 0.973625 4.17384C0.917313 4.27703 0.919594 4.40237 0.9795 4.50359C1.03972 4.6045 1.14875 4.66666 1.26628 4.66666Z" fill="#AAAAAA"/>
<path d="M4.69825 10.557C4.76172 10.487 4.79231 10.3936 4.78288 10.2998C4.70572 9.53419 4.66666 8.76009 4.66666 8C4.66666 7.23991 4.70572 6.46581 4.78288 5.70019C4.79231 5.60644 4.76172 5.513 4.69825 5.44303C4.63509 5.37303 4.54525 5.33334 4.45119 5.33334H0.697594C0.552406 5.33334 0.424156 5.42709 0.380219 5.56512C0.127937 6.35516 0 7.17416 0 8C0 8.82584 0.127937 9.64484 0.380219 10.4349C0.424156 10.5729 0.552406 10.6667 0.697594 10.6667H4.45119C4.54525 10.6667 4.63509 10.627 4.69825 10.557Z" fill="#AAAAAA"/>
<path d="M4.95962 11.6113C4.93259 11.4509 4.79359 11.3333 4.63084 11.3333H1.26628C1.14878 11.3333 1.03972 11.3955 0.9795 11.4964C0.919594 11.5977 0.917313 11.723 0.973625 11.8262C1.97428 13.6598 3.69334 15.0567 5.69075 15.6582C5.72231 15.668 5.75456 15.6725 5.78678 15.6725C5.88606 15.6725 5.98209 15.6279 6.04656 15.5482C6.13153 15.4421 6.14391 15.2952 6.07781 15.1768C5.59212 14.3063 5.20541 13.0736 4.95962 11.6113Z" fill="#AAAAAA"/>
<path d="M14.7337 11.3333H11.3692C11.2064 11.3333 11.0674 11.4508 11.0404 11.6113C10.7946 13.0736 10.4079 14.3063 9.92222 15.1768C9.85612 15.2953 9.8685 15.4421 9.95347 15.5482C10.0179 15.6279 10.1139 15.6725 10.2133 15.6725C10.2452 15.6725 10.2777 15.668 10.3093 15.6582C12.3067 15.0567 14.0258 13.6598 15.0264 11.8262C15.0827 11.723 15.0804 11.5977 15.0205 11.4964C14.9603 11.3955 14.8512 11.3333 14.7337 11.3333Z" fill="#AAAAAA"/>
<path d="M5.72753 4.54656C5.79069 4.62275 5.88475 4.66669 5.98372 4.66669H10.0163C10.1152 4.66669 10.2093 4.62275 10.2725 4.54656C10.3359 4.47038 10.362 4.37012 10.3441 4.27281C9.86491 1.67709 8.94466 0 8 0C7.05534 0 6.13509 1.67709 5.65594 4.27278C5.63803 4.37013 5.66406 4.47038 5.72753 4.54656Z" fill="#AAAAAA"/>
</svg>
