<svg width="20" height="13" viewBox="0 0 20 13" fill="none" xmlns="http://www.w3.org/2000/svg">
<path d="M12.9592 7.2674L11.2842 8.82111C10.6049 9.45125 9.40977 9.46483 8.71582 8.82111L7.0407 7.2674L1.02445 12.8471C1.2484 12.9429 1.49531 13 1.75781 13H18.2422C18.5047 13 18.7515 12.9429 18.9754 12.8472L12.9592 7.2674Z" fill="#AAAAAA"/>
<path d="M18.2422 0H1.75781C1.49531 0 1.2484 0.0571278 1.02453 0.152858L7.45332 6.11563C7.45375 6.11603 7.45426 6.1161 7.45469 6.1165C7.45512 6.1169 7.4552 6.11744 7.4552 6.11744L9.54555 8.05624C9.76758 8.2615 10.2325 8.2615 10.4545 8.05624L12.5445 6.11776C12.5445 6.11776 12.545 6.1169 12.5454 6.1165C12.5454 6.1165 12.5463 6.11603 12.5468 6.11563L18.9754 0.152822C18.7515 0.0570556 18.5047 0 18.2422 0Z" fill="#AAAAAA"/>
<path d="M0.186953 0.910433C0.0710937 1.12703 0 1.36746 0 1.625V11.375C0 11.6325 0.0710156 11.873 0.186914 12.0896L6.21359 6.50018L0.186953 0.910433Z" fill="#AAAAAA"/>
<path d="M19.813 0.910361L13.7864 6.50018L19.813 12.0896C19.9289 11.873 20 11.6326 20 11.375V1.625C20 1.36738 19.9289 1.12696 19.813 0.910361Z" fill="#AAAAAA"/>
</svg>
